<!-- Generated by IcoMoon.io -->
<svg version="1.1" xmlns="http://www.w3.org/2000/svg" width="32" height="32" viewBox="0 0 32 32">
<title>logo</title>
<path fill="#8643dc" d="M0 16c0-8.837 7.163-16 16-16h16v16c0 8.837-7.163 16-16 16s-16-7.163-16-16z"></path>
<path fill="#ff59c1" d="M12.8 8c0-4.418 3.582-8 8-8h11.2v10.4c0 4.418-3.582 8-8 8h-11.2v-10.4z"></path>
<path fill="#fff" d="M20.256 20.4h-7.8l-1.488 3.6h-3.984l7.488-16.8h3.84l7.512 16.8h-4.080l-1.488-3.6zM19.032 17.448l-2.664-6.432-2.664 6.432h5.328z"></path>
</svg>
